<svg width="24" height="24" viewBox="0 0 24 24" fill="none" xmlns="http://www.w3.org/2000/svg">
<path d="M8 5H12.5C13.4283 5 14.3185 5.36875 14.9749 6.02513C15.6313 6.6815 16 7.57174 16 8.5C16 9.42826 15.6313 10.3185 14.9749 10.9749C14.3185 11.6313 13.4283 12 12.5 12H8M8 5V12M8 5H6M8 12H14.5C15.4283 12 16.3185 12.3687 16.9749 13.0251C17.6313 13.6815 18 14.5717 18 15.5C18 16.4283 17.6313 17.3185 16.9749 17.9749C16.3185 18.6313 15.4283 19 14.5 19H8M8 12V19M8 19H6" stroke="#6E6893" stroke-width="2" stroke-linecap="round" stroke-linejoin="round"/>
</svg>
