<svg width="24" height="24" viewBox="0 0 24 24" fill="none" xmlns="http://www.w3.org/2000/svg">
<path d="M10 3V7C10 7.55228 9.55228 8 9 8H5M19 4V20C19 20.5523 18.5523 21 18 21H6C5.44772 21 5 20.5523 5 20V7.91421C5 7.649 5.10536 7.39464 5.29289 7.20711L9.20711 3.29289C9.39464 3.10536 9.649 3 9.91421 3H18C18.5523 3 19 3.44772 19 4ZM8 18H16L14 14L12.5 16L10.5 12L8 18ZM15 9.5C15 9.5 14.7761 10 14.5 10C14.2239 10 14 9.77614 14 9.5C14 9.22386 14.2239 9 14.5 9C14.7761 9 15 9.5 15 9.5Z" stroke="#6E6893" stroke-width="1.5" stroke-linecap="round" stroke-linejoin="round"/>
</svg>
