<svg width="24" height="24" viewBox="0 0 24 24" fill="none" xmlns="http://www.w3.org/2000/svg">
<path d="M18 9V4C18 3.44772 17.5523 3 17 3H8.91421C8.649 3 8.39464 3.10536 8.20711 3.29289L4.29289 7.20711C4.10536 7.39464 4 7.649 4 7.91421V20C4 20.5523 4.44772 21 5 21H9M9 3V7C9 7.55228 8.55228 8 8 8H4M15 14V18M13 16H17M20 16C20 18.7614 17.7614 21 15 21C12.2386 21 10 18.7614 10 16C10 13.2386 12.2386 11 15 11C17.7614 11 20 13.2386 20 16Z" stroke="#6E6893" stroke-width="1.5" stroke-linecap="round" stroke-linejoin="round"/>
</svg>
