<svg xmlns="http://www.w3.org/2000/svg" xmlns:xlink="http://www.w3.org/1999/xlink" width="500" zoomAndPan="magnify" viewBox="0 0 375 374.999991" height="500" preserveAspectRatio="xMidYMid meet" version="1.0"><defs><clipPath id="81526a97c1"><path d="M 58.515625 0 L 316.515625 0 L 316.515625 375 L 58.515625 375 Z M 58.515625 0 " clip-rule="nonzero"/></clipPath></defs><g clip-path="url(#81526a97c1)"><path fill="#ffffff" d="M 228.277344 260.695312 L 228.277344 324.886719 C 275.179688 324.886719 313.597656 288.230469 316.402344 241.964844 L 247.085938 241.964844 C 236.683594 241.964844 228.277344 250.371094 228.277344 260.695312 Z M 228.277344 60.519531 L 228.277344 155.84375 L 82.128906 155.84375 C 69.082031 155.84375 58.515625 166.410156 58.515625 179.457031 L 58.515625 374.589844 L 117.425781 355.0625 C 134.953125 349.21875 146.71875 332.890625 146.71875 314.402344 L 146.71875 228.359375 L 292.867188 228.359375 C 305.914062 228.359375 316.480469 217.792969 316.480469 204.75 L 316.480469 0.410156 L 257.570312 19.859375 C 240.125 25.703125 228.277344 42.03125 228.277344 60.519531 Z M 146.71875 63.078125 C 100.457031 63.078125 62.4375 98.855469 58.835938 144.238281 L 128.070312 144.238281 C 138.394531 144.238281 146.796875 135.835938 146.796875 125.511719 L 146.796875 63.078125 Z M 146.71875 63.078125 " fill-opacity="1" fill-rule="nonzero"/></g></svg>